<?xml version="1.0" encoding="UTF-8" standalone="no"?>
<svg
   viewBox="0 0 620 130"
   width="620"
   height="130"
   version="1.1"
   id="svg112"
   sodipodi:docname="pattern-eighth-hats.svg"
   inkscape:version="1.1.2 (0a00cf5339, 2022-02-04)"
   xmlns:inkscape="http://www.inkscape.org/namespaces/inkscape"
   xmlns:sodipodi="http://sodipodi.sourceforge.net/DTD/sodipodi-0.dtd"
   xmlns="http://www.w3.org/2000/svg"
   xmlns:svg="http://www.w3.org/2000/svg">
  <defs
     id="defs116" />
  <sodipodi:namedview
     id="namedview114"
     pagecolor="#ffffff"
     bordercolor="#666666"
     borderopacity="1.0"
     inkscape:pageshadow="2"
     inkscape:pageopacity="0.0"
     inkscape:pagecheckerboard="0"
     showgrid="false"
     inkscape:zoom="2.2564516"
     inkscape:cx="310"
     inkscape:cy="65.146533"
     inkscape:window-width="1918"
     inkscape:window-height="1037"
     inkscape:window-x="1"
     inkscape:window-y="22"
     inkscape:window-maximized="0"
     inkscape:current-layer="svg112" />
  <!-- Background -->
  <rect
     width="620"
     height="130"
     fill="#f5f5f5"
     rx="4"
     id="rect2" />
  <!-- Beat separators -->
  <rect
     x="196.3531"
     y="0.0091290968"
     width="1"
     height="130"
     fill="#bbbbbb"
     id="rect4" />
  <rect
     x="335.80191"
     y="0"
     width="1"
     height="130"
     fill="#bbbbbb"
     id="rect6" />
  <rect
     x="476.15271"
     y="1.1098412"
     width="1"
     height="130"
     fill="#bbbbbb"
     id="rect8" />
  <!-- Kick row -->
  <text
     x="12"
     y="30"
     font-family="system-ui, sans-serif"
     font-size="12"
     font-weight="bold"
     fill="#333"
     id="text10">Kick</text>
  <rect
     x="60"
     y="10"
     width="28"
     height="28"
     rx="4"
     fill="#e65100"
     id="rect12" />
  <rect
     x="95"
     y="10"
     width="28"
     height="28"
     rx="4"
     fill="#ddd"
     id="rect14" />
  <rect
     x="130"
     y="10"
     width="28"
     height="28"
     rx="4"
     fill="#ddd"
     id="rect16" />
  <rect
     x="165"
     y="10"
     width="28"
     height="28"
     rx="4"
     fill="#ddd"
     id="rect18" />
  <rect
     x="200"
     y="10"
     width="28"
     height="28"
     rx="4"
     fill="#e65100"
     id="rect20" />
  <rect
     x="235"
     y="10"
     width="28"
     height="28"
     rx="4"
     fill="#ddd"
     id="rect22" />
  <rect
     x="270"
     y="10"
     width="28"
     height="28"
     rx="4"
     fill="#ddd"
     id="rect24" />
  <rect
     x="305"
     y="10"
     width="28"
     height="28"
     rx="4"
     fill="#ddd"
     id="rect26" />
  <rect
     x="340"
     y="10"
     width="28"
     height="28"
     rx="4"
     fill="#e65100"
     id="rect28" />
  <rect
     x="375"
     y="10"
     width="28"
     height="28"
     rx="4"
     fill="#ddd"
     id="rect30" />
  <rect
     x="410"
     y="10"
     width="28"
     height="28"
     rx="4"
     fill="#ddd"
     id="rect32" />
  <rect
     x="445"
     y="10"
     width="28"
     height="28"
     rx="4"
     fill="#ddd"
     id="rect34" />
  <rect
     x="480"
     y="10"
     width="28"
     height="28"
     rx="4"
     fill="#e65100"
     id="rect36" />
  <rect
     x="515"
     y="10"
     width="28"
     height="28"
     rx="4"
     fill="#ddd"
     id="rect38" />
  <rect
     x="550"
     y="10"
     width="28"
     height="28"
     rx="4"
     fill="#ddd"
     id="rect40" />
  <rect
     x="585"
     y="10"
     width="28"
     height="28"
     rx="4"
     fill="#ddd"
     id="rect42" />
  <!-- Snare row -->
  <text
     x="12"
     y="65"
     font-family="system-ui, sans-serif"
     font-size="12"
     font-weight="bold"
     fill="#333"
     id="text44">Snare</text>
  <rect
     x="60"
     y="45"
     width="28"
     height="28"
     rx="4"
     fill="#ddd"
     id="rect46" />
  <rect
     x="95"
     y="45"
     width="28"
     height="28"
     rx="4"
     fill="#ddd"
     id="rect48" />
  <rect
     x="130"
     y="45"
     width="28"
     height="28"
     rx="4"
     fill="#ddd"
     id="rect50" />
  <rect
     x="165"
     y="45"
     width="28"
     height="28"
     rx="4"
     fill="#ddd"
     id="rect52" />
  <rect
     x="200"
     y="45"
     width="28"
     height="28"
     rx="4"
     fill="#fdd835"
     id="rect54" />
  <rect
     x="235"
     y="45"
     width="28"
     height="28"
     rx="4"
     fill="#ddd"
     id="rect56" />
  <rect
     x="270"
     y="45"
     width="28"
     height="28"
     rx="4"
     fill="#ddd"
     id="rect58" />
  <rect
     x="305"
     y="45"
     width="28"
     height="28"
     rx="4"
     fill="#ddd"
     id="rect60" />
  <rect
     x="340"
     y="45"
     width="28"
     height="28"
     rx="4"
     fill="#ddd"
     id="rect62" />
  <rect
     x="375"
     y="45"
     width="28"
     height="28"
     rx="4"
     fill="#ddd"
     id="rect64" />
  <rect
     x="410"
     y="45"
     width="28"
     height="28"
     rx="4"
     fill="#ddd"
     id="rect66" />
  <rect
     x="445"
     y="45"
     width="28"
     height="28"
     rx="4"
     fill="#ddd"
     id="rect68" />
  <rect
     x="480"
     y="45"
     width="28"
     height="28"
     rx="4"
     fill="#fdd835"
     id="rect70" />
  <rect
     x="515"
     y="45"
     width="28"
     height="28"
     rx="4"
     fill="#ddd"
     id="rect72" />
  <rect
     x="550"
     y="45"
     width="28"
     height="28"
     rx="4"
     fill="#ddd"
     id="rect74" />
  <rect
     x="585"
     y="45"
     width="28"
     height="28"
     rx="4"
     fill="#ddd"
     id="rect76" />
  <!-- Hi-Hat row -->
  <text
     x="12"
     y="100"
     font-family="system-ui, sans-serif"
     font-size="12"
     font-weight="bold"
     fill="#333"
     id="text78">Hi-Hat</text>
  <rect
     x="60"
     y="80"
     width="28"
     height="28"
     rx="4"
     fill="#42a5f5"
     id="rect80" />
  <rect
     x="95"
     y="80"
     width="28"
     height="28"
     rx="4"
     fill="#ddd"
     id="rect82" />
  <rect
     x="130"
     y="80"
     width="28"
     height="28"
     rx="4"
     fill="#42a5f5"
     id="rect84" />
  <rect
     x="165"
     y="80"
     width="28"
     height="28"
     rx="4"
     fill="#ddd"
     id="rect86" />
  <rect
     x="200"
     y="80"
     width="28"
     height="28"
     rx="4"
     fill="#42a5f5"
     id="rect88" />
  <rect
     x="235"
     y="80"
     width="28"
     height="28"
     rx="4"
     fill="#ddd"
     id="rect90" />
  <rect
     x="270"
     y="80"
     width="28"
     height="28"
     rx="4"
     fill="#42a5f5"
     id="rect92" />
  <rect
     x="305"
     y="80"
     width="28"
     height="28"
     rx="4"
     fill="#ddd"
     id="rect94" />
  <rect
     x="340"
     y="80"
     width="28"
     height="28"
     rx="4"
     fill="#42a5f5"
     id="rect96" />
  <rect
     x="375"
     y="80"
     width="28"
     height="28"
     rx="4"
     fill="#ddd"
     id="rect98" />
  <rect
     x="410"
     y="80"
     width="28"
     height="28"
     rx="4"
     fill="#42a5f5"
     id="rect100" />
  <rect
     x="445"
     y="80"
     width="28"
     height="28"
     rx="4"
     fill="#ddd"
     id="rect102" />
  <rect
     x="480"
     y="80"
     width="28"
     height="28"
     rx="4"
     fill="#42a5f5"
     id="rect104" />
  <rect
     x="515"
     y="80"
     width="28"
     height="28"
     rx="4"
     fill="#ddd"
     id="rect106" />
  <rect
     x="550"
     y="80"
     width="28"
     height="28"
     rx="4"
     fill="#42a5f5"
     id="rect108" />
  <rect
     x="585"
     y="80"
     width="28"
     height="28"
     rx="4"
     fill="#ddd"
     id="rect110" />
</svg>
