<?xml version="1.0" encoding="UTF-8" standalone="no"?>
<svg
   viewBox="0 0 620 95"
   width="620"
   height="95"
   version="1.1"
   id="svg78"
   sodipodi:docname="pattern-backbeat.svg"
   inkscape:version="1.1.2 (0a00cf5339, 2022-02-04)"
   xmlns:inkscape="http://www.inkscape.org/namespaces/inkscape"
   xmlns:sodipodi="http://sodipodi.sourceforge.net/DTD/sodipodi-0.dtd"
   xmlns="http://www.w3.org/2000/svg"
   xmlns:svg="http://www.w3.org/2000/svg">
  <defs
     id="defs82" />
  <sodipodi:namedview
     id="namedview80"
     pagecolor="#ffffff"
     bordercolor="#666666"
     borderopacity="1.0"
     inkscape:pageshadow="2"
     inkscape:pageopacity="0.0"
     inkscape:pagecheckerboard="0"
     showgrid="false"
     inkscape:zoom="2.2564516"
     inkscape:cx="310"
     inkscape:cy="47.419585"
     inkscape:window-width="1918"
     inkscape:window-height="1037"
     inkscape:window-x="1"
     inkscape:window-y="22"
     inkscape:window-maximized="0"
     inkscape:current-layer="svg78" />
  <!-- Background -->
  <rect
     width="620"
     height="95"
     fill="#f5f5f5"
     rx="4"
     id="rect2" />
  <!-- Beat separators -->
  <rect
     x="195.972"
     y="-0.39865077"
     width="1"
     height="95"
     fill="#bbbbbb"
     id="rect4" />
  <rect
     x="336.31219"
     y="-0.53154337"
     width="1"
     height="95"
     fill="#bbbbbb"
     id="rect6" />
  <rect
     x="476.48227"
     y="0"
     width="1"
     height="95"
     fill="#bbbbbb"
     id="rect8" />
  <!-- Kick row -->
  <text
     x="12"
     y="32"
     font-family="system-ui, sans-serif"
     font-size="12"
     font-weight="bold"
     fill="#333"
     id="text10">Kick</text>
  <rect
     x="60"
     y="12"
     width="28"
     height="28"
     rx="4"
     fill="#e65100"
     id="rect12" />
  <rect
     x="95"
     y="12"
     width="28"
     height="28"
     rx="4"
     fill="#ddd"
     id="rect14" />
  <rect
     x="130"
     y="12"
     width="28"
     height="28"
     rx="4"
     fill="#ddd"
     id="rect16" />
  <rect
     x="165"
     y="12"
     width="28"
     height="28"
     rx="4"
     fill="#ddd"
     id="rect18" />
  <rect
     x="200"
     y="12"
     width="28"
     height="28"
     rx="4"
     fill="#e65100"
     id="rect20" />
  <rect
     x="235"
     y="12"
     width="28"
     height="28"
     rx="4"
     fill="#ddd"
     id="rect22" />
  <rect
     x="270"
     y="12"
     width="28"
     height="28"
     rx="4"
     fill="#ddd"
     id="rect24" />
  <rect
     x="305"
     y="12"
     width="28"
     height="28"
     rx="4"
     fill="#ddd"
     id="rect26" />
  <rect
     x="340"
     y="12"
     width="28"
     height="28"
     rx="4"
     fill="#e65100"
     id="rect28" />
  <rect
     x="375"
     y="12"
     width="28"
     height="28"
     rx="4"
     fill="#ddd"
     id="rect30" />
  <rect
     x="410"
     y="12"
     width="28"
     height="28"
     rx="4"
     fill="#ddd"
     id="rect32" />
  <rect
     x="445"
     y="12"
     width="28"
     height="28"
     rx="4"
     fill="#ddd"
     id="rect34" />
  <rect
     x="480"
     y="12"
     width="28"
     height="28"
     rx="4"
     fill="#e65100"
     id="rect36" />
  <rect
     x="515"
     y="12"
     width="28"
     height="28"
     rx="4"
     fill="#ddd"
     id="rect38" />
  <rect
     x="550"
     y="12"
     width="28"
     height="28"
     rx="4"
     fill="#ddd"
     id="rect40" />
  <rect
     x="585"
     y="12"
     width="28"
     height="28"
     rx="4"
     fill="#ddd"
     id="rect42" />
  <!-- Snare row -->
  <text
     x="12"
     y="67"
     font-family="system-ui, sans-serif"
     font-size="12"
     font-weight="bold"
     fill="#333"
     id="text44">Snare</text>
  <rect
     x="60"
     y="47"
     width="28"
     height="28"
     rx="4"
     fill="#ddd"
     id="rect46" />
  <rect
     x="95"
     y="47"
     width="28"
     height="28"
     rx="4"
     fill="#ddd"
     id="rect48" />
  <rect
     x="130"
     y="47"
     width="28"
     height="28"
     rx="4"
     fill="#ddd"
     id="rect50" />
  <rect
     x="165"
     y="47"
     width="28"
     height="28"
     rx="4"
     fill="#ddd"
     id="rect52" />
  <rect
     x="200"
     y="47"
     width="28"
     height="28"
     rx="4"
     fill="#fdd835"
     id="rect54" />
  <rect
     x="235"
     y="47"
     width="28"
     height="28"
     rx="4"
     fill="#ddd"
     id="rect56" />
  <rect
     x="270"
     y="47"
     width="28"
     height="28"
     rx="4"
     fill="#ddd"
     id="rect58" />
  <rect
     x="305"
     y="47"
     width="28"
     height="28"
     rx="4"
     fill="#ddd"
     id="rect60" />
  <rect
     x="340"
     y="47"
     width="28"
     height="28"
     rx="4"
     fill="#ddd"
     id="rect62" />
  <rect
     x="375"
     y="47"
     width="28"
     height="28"
     rx="4"
     fill="#ddd"
     id="rect64" />
  <rect
     x="410"
     y="47"
     width="28"
     height="28"
     rx="4"
     fill="#ddd"
     id="rect66" />
  <rect
     x="445"
     y="47"
     width="28"
     height="28"
     rx="4"
     fill="#ddd"
     id="rect68" />
  <rect
     x="480"
     y="47"
     width="28"
     height="28"
     rx="4"
     fill="#fdd835"
     id="rect70" />
  <rect
     x="515"
     y="47"
     width="28"
     height="28"
     rx="4"
     fill="#ddd"
     id="rect72" />
  <rect
     x="550"
     y="47"
     width="28"
     height="28"
     rx="4"
     fill="#ddd"
     id="rect74" />
  <rect
     x="585"
     y="47"
     width="28"
     height="28"
     rx="4"
     fill="#ddd"
     id="rect76" />
</svg>
